<?xml version="1.0" encoding="UTF-8"?>
<svg id="_图层_1" data-name="图层_1" xmlns="http://www.w3.org/2000/svg" version="1.1" viewBox="0 0 141.73 141.73">
  <!-- Generator: Adobe Illustrator 29.8.2, SVG Export Plug-In . SVG Version: 2.1.1 Build 3)  -->
  <defs>
    <style>
      .st0 {
        fill: #7cc8c0;
      }

      .st1 {
        fill: #84c35b;
      }
    </style>
  </defs>
  <path class="st0" d="M68.04,110.4c-23.5,0-42.62-19.12-42.62-42.61s19.12-42.61,42.62-42.61c5.35,0,10.45,1.03,15.17,2.84l8.41-12.86c-7.21-3.24-15.18-5.09-23.59-5.09-31.83,0-57.72,25.9-57.72,57.72s25.89,57.72,57.72,57.72c9.07,0,17.63-2.16,25.28-5.91l-8.33-12.74c-5.2,2.26-10.93,3.54-16.95,3.54Z"/>
  <path class="st1" d="M131.41,123.51l-19.72-30.16c5.08-.01,9.63-2.11,12.83-5.93,3.39-4.04,4.77-9.54,3.79-15.09l-2.64-14.9c-1.56-8.82-9.49-15.48-18.45-15.48h-41.47c-8.95,0-16.89,6.66-18.45,15.48l-2.64,14.9c-.98,5.55.4,11.05,3.79,15.09,3.21,3.82,7.78,5.93,12.87,5.93h14.82l-9.88-15.11h-4.94c-.76,0-1.09-.28-1.3-.53-.5-.6-.69-1.63-.49-2.75l2.64-14.9c.27-1.55,2.01-3,3.57-3h41.47c1.56,0,3.3,1.46,3.57,3l2.64,14.9c.2,1.12.02,2.15-.49,2.75-.21.25-.54.53-1.3.53h-27.65l34.94,53.42,12.48-8.16Z"/>
</svg>